<svg xmlns="http://www.w3.org/2000/svg" viewBox="0 0 3195.96 1856.62"><defs><style>.cls-1{fill:none;stroke:#231f20;stroke-miterlimit:10;}</style></defs><g id="Layer_2" data-name="Layer 2"><g id="Layer_1-2" data-name="Layer 1"><line class="cls-1" y1="1838.24" x2="3195.96" y2="1838.24"/><line class="cls-1" y1="1819.86" x2="3195.96" y2="1819.86"/><line class="cls-1" y1="1801.47" x2="3195.96" y2="1801.47"/><line class="cls-1" y1="1783.09" x2="3195.96" y2="1783.09"/><line class="cls-1" y1="1764.71" x2="3195.96" y2="1764.71"/><line class="cls-1" y1="1746.33" x2="3195.96" y2="1746.33"/><line class="cls-1" y1="1727.94" x2="3195.96" y2="1727.94"/><line class="cls-1" y1="1709.56" x2="3195.96" y2="1709.56"/><line class="cls-1" y1="1691.18" x2="3195.96" y2="1691.18"/><line class="cls-1" y1="1672.8" x2="3195.96" y2="1672.8"/><line class="cls-1" y1="1654.42" x2="3195.96" y2="1654.42"/><line class="cls-1" y1="1636.03" x2="3195.96" y2="1636.03"/><line class="cls-1" y1="1617.65" x2="3195.96" y2="1617.65"/><line class="cls-1" y1="1599.27" x2="3195.96" y2="1599.27"/><line class="cls-1" y1="1580.89" x2="3195.96" y2="1580.89"/><line class="cls-1" y1="1562.5" x2="3195.96" y2="1562.5"/><line class="cls-1" y1="1544.12" x2="3195.96" y2="1544.12"/><line class="cls-1" y1="1525.74" x2="3195.96" y2="1525.74"/><line class="cls-1" y1="1507.36" x2="3195.96" y2="1507.36"/><line class="cls-1" y1="1488.97" x2="3195.96" y2="1488.97"/><line class="cls-1" y1="1470.59" x2="3195.96" y2="1470.59"/><line class="cls-1" y1="1452.21" x2="3195.96" y2="1452.21"/><line class="cls-1" y1="1433.83" x2="3195.96" y2="1433.83"/><line class="cls-1" y1="1415.44" x2="3195.96" y2="1415.44"/><line class="cls-1" y1="1397.06" x2="3195.96" y2="1397.06"/><line class="cls-1" y1="1378.68" x2="3195.96" y2="1378.68"/><line class="cls-1" y1="1360.3" x2="3195.96" y2="1360.3"/><line class="cls-1" y1="1341.91" x2="3195.96" y2="1341.91"/><line class="cls-1" y1="1323.53" x2="3195.96" y2="1323.53"/><line class="cls-1" y1="1305.15" x2="3195.96" y2="1305.15"/><line class="cls-1" y1="1286.77" x2="3195.96" y2="1286.77"/><line class="cls-1" y1="1268.38" x2="3195.96" y2="1268.38"/><line class="cls-1" y1="1250" x2="3195.96" y2="1250"/><line class="cls-1" y1="1231.62" x2="3195.96" y2="1231.62"/><line class="cls-1" y1="1213.24" x2="3195.96" y2="1213.24"/><line class="cls-1" y1="1194.86" x2="3195.96" y2="1194.86"/><line class="cls-1" y1="1176.47" x2="3195.96" y2="1176.47"/><line class="cls-1" y1="1158.09" x2="3195.96" y2="1158.09"/><line class="cls-1" y1="1139.71" x2="3195.96" y2="1139.71"/><line class="cls-1" y1="1121.33" x2="3195.96" y2="1121.33"/><line class="cls-1" y1="1102.94" x2="3195.96" y2="1102.94"/><line class="cls-1" y1="1084.56" x2="3195.96" y2="1084.56"/><line class="cls-1" y1="1066.18" x2="3195.96" y2="1066.18"/><line class="cls-1" y1="1047.8" x2="3195.96" y2="1047.8"/><line class="cls-1" y1="1029.41" x2="3195.96" y2="1029.41"/><line class="cls-1" y1="1011.03" x2="3195.96" y2="1011.03"/><line class="cls-1" y1="992.65" x2="3195.96" y2="992.65"/><line class="cls-1" y1="974.27" x2="3195.96" y2="974.27"/><line class="cls-1" y1="955.88" x2="3195.96" y2="955.88"/><line class="cls-1" y1="937.5" x2="3195.96" y2="937.5"/><line class="cls-1" y1="919.12" x2="3195.96" y2="919.12"/><line class="cls-1" y1="900.74" x2="3195.96" y2="900.74"/><line class="cls-1" y1="882.35" x2="3195.96" y2="882.35"/><line class="cls-1" y1="863.97" x2="3195.96" y2="863.97"/><line class="cls-1" y1="845.59" x2="3195.96" y2="845.59"/><line class="cls-1" y1="827.21" x2="3195.96" y2="827.21"/><line class="cls-1" y1="808.83" x2="3195.96" y2="808.83"/><line class="cls-1" y1="790.44" x2="3195.96" y2="790.44"/><line class="cls-1" y1="772.06" x2="3195.96" y2="772.06"/><line class="cls-1" y1="753.68" x2="3195.96" y2="753.68"/><line class="cls-1" y1="735.3" x2="3195.96" y2="735.3"/><line class="cls-1" y1="716.91" x2="3195.96" y2="716.91"/><line class="cls-1" y1="698.53" x2="3195.96" y2="698.53"/><line class="cls-1" y1="680.15" x2="3195.96" y2="680.15"/><line class="cls-1" y1="661.77" x2="3195.96" y2="661.77"/><line class="cls-1" y1="643.38" x2="3195.96" y2="643.38"/><line class="cls-1" y1="625" x2="3195.96" y2="625"/><line class="cls-1" y1="606.62" x2="3195.96" y2="606.62"/><line class="cls-1" y1="588.24" x2="3195.96" y2="588.24"/><line class="cls-1" y1="569.85" x2="3195.96" y2="569.85"/><line class="cls-1" y1="551.47" x2="3195.96" y2="551.47"/><line class="cls-1" y1="533.09" x2="3195.96" y2="533.09"/><line class="cls-1" y1="514.71" x2="3195.96" y2="514.71"/><line class="cls-1" y1="496.32" x2="3195.96" y2="496.32"/><line class="cls-1" y1="477.94" x2="3195.96" y2="477.94"/><line class="cls-1" y1="459.56" x2="3195.96" y2="459.56"/><line class="cls-1" y1="441.18" x2="3195.96" y2="441.18"/><line class="cls-1" y1="422.79" x2="3195.96" y2="422.79"/><line class="cls-1" y1="404.41" x2="3195.96" y2="404.41"/><line class="cls-1" y1="386.03" x2="3195.96" y2="386.03"/><line class="cls-1" y1="367.65" x2="3195.96" y2="367.65"/><line class="cls-1" y1="349.27" x2="3195.96" y2="349.27"/><line class="cls-1" y1="330.88" x2="3195.96" y2="330.88"/><line class="cls-1" y1="312.5" x2="3195.96" y2="312.5"/><line class="cls-1" y1="294.12" x2="3195.96" y2="294.12"/><line class="cls-1" y1="275.74" x2="3195.96" y2="275.74"/><line class="cls-1" y1="257.35" x2="3195.96" y2="257.35"/><line class="cls-1" y1="238.97" x2="3195.96" y2="238.97"/><line class="cls-1" y1="220.59" x2="3195.96" y2="220.59"/><line class="cls-1" y1="202.21" x2="3195.96" y2="202.21"/><line class="cls-1" y1="183.82" x2="3195.96" y2="183.82"/><line class="cls-1" y1="165.44" x2="3195.96" y2="165.44"/><line class="cls-1" y1="147.06" x2="3195.96" y2="147.06"/><line class="cls-1" y1="128.68" x2="3195.96" y2="128.68"/><line class="cls-1" y1="110.29" x2="3195.96" y2="110.29"/><line class="cls-1" y1="91.91" x2="3195.96" y2="91.91"/><line class="cls-1" y1="73.53" x2="3195.96" y2="73.53"/><line class="cls-1" y1="55.15" x2="3195.96" y2="55.15"/><line class="cls-1" y1="36.76" x2="3195.96" y2="36.76"/><line class="cls-1" y1="18.38" x2="3195.96" y2="18.38"/><line class="cls-1" x1="3164.32" x2="3164.32" y2="1856.62"/><line class="cls-1" x1="3132.67" x2="3132.67" y2="1856.62"/><line class="cls-1" x1="3101.03" x2="3101.03" y2="1856.62"/><line class="cls-1" x1="3069.39" x2="3069.39" y2="1856.62"/><line class="cls-1" x1="3037.75" x2="3037.75" y2="1856.62"/><line class="cls-1" x1="3006.1" x2="3006.1" y2="1856.62"/><line class="cls-1" x1="2974.46" x2="2974.46" y2="1856.62"/><line class="cls-1" x1="2942.82" x2="2942.82" y2="1856.62"/><line class="cls-1" x1="2911.17" x2="2911.17" y2="1856.62"/><line class="cls-1" x1="2879.53" x2="2879.53" y2="1856.62"/><line class="cls-1" x1="2847.89" x2="2847.89" y2="1856.62"/><line class="cls-1" x1="2816.24" x2="2816.24" y2="1856.62"/><line class="cls-1" x1="2784.6" x2="2784.6" y2="1856.62"/><line class="cls-1" x1="2752.96" x2="2752.96" y2="1856.62"/><line class="cls-1" x1="2721.31" x2="2721.31" y2="1856.62"/><line class="cls-1" x1="2689.67" x2="2689.67" y2="1856.62"/><line class="cls-1" x1="2658.03" x2="2658.03" y2="1856.62"/><line class="cls-1" x1="2626.38" x2="2626.38" y2="1856.62"/><line class="cls-1" x1="2594.74" x2="2594.74" y2="1856.62"/><line class="cls-1" x1="2563.1" x2="2563.1" y2="1856.62"/><line class="cls-1" x1="2531.45" x2="2531.45" y2="1856.62"/><line class="cls-1" x1="2499.81" x2="2499.81" y2="1856.62"/><line class="cls-1" x1="2468.17" x2="2468.17" y2="1856.62"/><line class="cls-1" x1="2436.52" x2="2436.52" y2="1856.62"/><line class="cls-1" x1="2404.88" x2="2404.88" y2="1856.62"/><line class="cls-1" x1="2373.24" x2="2373.24" y2="1856.62"/><line class="cls-1" x1="2341.6" x2="2341.6" y2="1856.62"/><line class="cls-1" x1="2309.95" x2="2309.95" y2="1856.62"/><line class="cls-1" x1="2278.31" x2="2278.31" y2="1856.62"/><line class="cls-1" x1="2246.67" x2="2246.67" y2="1856.62"/><line class="cls-1" x1="2215.02" x2="2215.02" y2="1856.62"/><line class="cls-1" x1="2183.38" x2="2183.38" y2="1856.62"/><line class="cls-1" x1="2151.74" x2="2151.74" y2="1856.62"/><line class="cls-1" x1="2120.09" x2="2120.09" y2="1856.62"/><line class="cls-1" x1="2088.45" x2="2088.45" y2="1856.62"/><line class="cls-1" x1="2056.81" x2="2056.81" y2="1856.62"/><line class="cls-1" x1="2025.16" x2="2025.16" y2="1856.62"/><line class="cls-1" x1="1993.52" x2="1993.52" y2="1856.62"/><line class="cls-1" x1="1961.88" x2="1961.88" y2="1856.62"/><line class="cls-1" x1="1930.23" x2="1930.23" y2="1856.62"/><line class="cls-1" x1="1898.59" x2="1898.59" y2="1856.62"/><line class="cls-1" x1="1866.95" x2="1866.95" y2="1856.62"/><line class="cls-1" x1="1835.3" x2="1835.3" y2="1856.62"/><line class="cls-1" x1="1803.66" x2="1803.66" y2="1856.62"/><line class="cls-1" x1="1772.02" x2="1772.02" y2="1856.62"/><line class="cls-1" x1="1740.37" x2="1740.37" y2="1856.62"/><line class="cls-1" x1="1708.73" x2="1708.73" y2="1856.62"/><line class="cls-1" x1="1677.09" x2="1677.09" y2="1856.62"/><line class="cls-1" x1="1645.45" x2="1645.45" y2="1856.62"/><line class="cls-1" x1="1613.8" x2="1613.8" y2="1856.62"/><line class="cls-1" x1="1582.16" x2="1582.16" y2="1856.62"/><line class="cls-1" x1="1550.52" x2="1550.52" y2="1856.62"/><line class="cls-1" x1="1518.87" x2="1518.87" y2="1856.62"/><line class="cls-1" x1="1487.23" x2="1487.23" y2="1856.62"/><line class="cls-1" x1="1455.59" x2="1455.59" y2="1856.62"/><line class="cls-1" x1="1423.94" x2="1423.94" y2="1856.62"/><line class="cls-1" x1="1392.3" x2="1392.3" y2="1856.62"/><line class="cls-1" x1="1360.66" x2="1360.66" y2="1856.62"/><line class="cls-1" x1="1329.01" x2="1329.01" y2="1856.62"/><line class="cls-1" x1="1297.37" x2="1297.37" y2="1856.62"/><line class="cls-1" x1="1265.73" x2="1265.73" y2="1856.62"/><line class="cls-1" x1="1234.08" x2="1234.08" y2="1856.62"/><line class="cls-1" x1="1202.44" x2="1202.44" y2="1856.62"/><line class="cls-1" x1="1170.8" x2="1170.8" y2="1856.62"/><line class="cls-1" x1="1139.15" x2="1139.15" y2="1856.62"/><line class="cls-1" x1="1107.51" x2="1107.51" y2="1856.62"/><line class="cls-1" x1="1075.87" x2="1075.87" y2="1856.62"/><line class="cls-1" x1="1044.22" x2="1044.22" y2="1856.62"/><line class="cls-1" x1="1012.58" x2="1012.58" y2="1856.62"/><line class="cls-1" x1="980.94" x2="980.94" y2="1856.62"/><line class="cls-1" x1="949.3" x2="949.3" y2="1856.62"/><line class="cls-1" x1="917.65" x2="917.65" y2="1856.62"/><line class="cls-1" x1="886.01" x2="886.01" y2="1856.62"/><line class="cls-1" x1="854.37" x2="854.37" y2="1856.62"/><line class="cls-1" x1="822.72" x2="822.72" y2="1856.62"/><line class="cls-1" x1="791.08" x2="791.08" y2="1856.62"/><line class="cls-1" x1="759.44" x2="759.44" y2="1856.62"/><line class="cls-1" x1="727.79" x2="727.79" y2="1856.62"/><line class="cls-1" x1="696.15" x2="696.15" y2="1856.62"/><line class="cls-1" x1="664.51" x2="664.51" y2="1856.62"/><line class="cls-1" x1="632.86" x2="632.86" y2="1856.62"/><line class="cls-1" x1="601.22" x2="601.22" y2="1856.62"/><line class="cls-1" x1="569.58" x2="569.58" y2="1856.62"/><line class="cls-1" x1="537.93" x2="537.93" y2="1856.62"/><line class="cls-1" x1="506.29" x2="506.29" y2="1856.62"/><line class="cls-1" x1="474.65" x2="474.65" y2="1856.62"/><line class="cls-1" x1="443" x2="443" y2="1856.62"/><line class="cls-1" x1="411.36" x2="411.36" y2="1856.62"/><line class="cls-1" x1="379.72" x2="379.72" y2="1856.62"/><line class="cls-1" x1="348.07" x2="348.07" y2="1856.62"/><line class="cls-1" x1="316.43" x2="316.43" y2="1856.62"/><line class="cls-1" x1="284.79" x2="284.79" y2="1856.62"/><line class="cls-1" x1="253.15" x2="253.15" y2="1856.62"/><line class="cls-1" x1="221.5" x2="221.5" y2="1856.62"/><line class="cls-1" x1="189.86" x2="189.86" y2="1856.62"/><line class="cls-1" x1="158.22" x2="158.22" y2="1856.62"/><line class="cls-1" x1="126.57" x2="126.57" y2="1856.62"/><line class="cls-1" x1="94.93" x2="94.93" y2="1856.62"/><line class="cls-1" x1="63.29" x2="63.29" y2="1856.62"/><line class="cls-1" x1="31.64" x2="31.64" y2="1856.62"/></g></g></svg>